<mxfile host="65bd71144e">
    <diagram id="Wk4zZQ7wnkKNB9seRDtu" name="第 1 页">
        <mxGraphModel dx="861" dy="670" grid="1" gridSize="10" guides="1" tooltips="1" connect="1" arrows="1" fold="1" page="1" pageScale="1" pageWidth="827" pageHeight="1169" math="0" shadow="0">
            <root>
                <mxCell id="0"/>
                <mxCell id="1" parent="0"/>
                <mxCell id="8hpe9qTfB8-NIAka6sMa-3" style="edgeStyle=orthogonalEdgeStyle;rounded=0;orthogonalLoop=1;jettySize=auto;html=1;" parent="1" source="8hpe9qTfB8-NIAka6sMa-1" target="8hpe9qTfB8-NIAka6sMa-2" edge="1">
                    <mxGeometry relative="1" as="geometry"/>
                </mxCell>
                <mxCell id="3" style="edgeStyle=orthogonalEdgeStyle;html=1;entryX=0;entryY=0.5;entryDx=0;entryDy=0;strokeWidth=2;dashed=1;" parent="1" source="8hpe9qTfB8-NIAka6sMa-2" target="2" edge="1">
                    <mxGeometry relative="1" as="geometry"/>
                </mxCell>
                <mxCell id="8hpe9qTfB8-NIAka6sMa-2" value="主运行类【被@SpringBootApplication注解的类】添加注解&lt;span&gt;@EnableTransactionManagement&lt;/span&gt;" style="rounded=1;whiteSpace=wrap;html=1;strokeWidth=2;" parent="1" vertex="1">
                    <mxGeometry x="85" y="290" width="250" height="120" as="geometry"/>
                </mxCell>
                <mxCell id="8hpe9qTfB8-NIAka6sMa-1" value="SpringBoot添加事务管理器" style="rounded=1;whiteSpace=wrap;html=1;strokeWidth=2;" parent="1" vertex="1">
                    <mxGeometry x="150" y="130" width="120" height="60" as="geometry"/>
                </mxCell>
                <mxCell id="2" value="&lt;span&gt;@EnableTransactionManagement作用：注册事务管理器到Spring容器当中&lt;/span&gt;" style="rounded=1;whiteSpace=wrap;html=1;strokeWidth=2;" parent="1" vertex="1">
                    <mxGeometry x="590" y="100" width="190" height="60" as="geometry"/>
                </mxCell>
            </root>
        </mxGraphModel>
    </diagram>
</mxfile>